<svg width="150" height="123" viewBox="0 0 150 123" fill="none" xmlns="http://www.w3.org/2000/svg">
<g filter="url(#filter0_d_745_286)">
<path d="M107.921 113.676V103.909H136.268V94.6188H145.321V113.676H107.921Z" fill="#141414"/>
<path d="M126.74 85.8049H135.792V94.1424V94.3806V94.8571H60.9923V104.147H51.9401V113.438H23.8306V104.147H13.8256V94.8571H23.3542V85.5667H32.6446V75.7998H126.74V85.8049Z" fill="#141414"/>
<path d="M135.792 94.3806V94.1424M135.792 94.1424V85.8049H126.74V75.7998H32.6446V85.5667H23.3542V94.8571H13.8256V104.147H23.8306V113.438H51.9401V104.147H60.9923V94.8571H135.792V94.1424ZM107.921 103.909V113.676H145.321V94.6188H136.268V103.909H107.921Z" stroke="#141414"/>
<path d="M126.74 19.5808H117.449V56.9807L32.8828 57.4571V19.5808H41.935V10.2904H107.921V1H23.5924V10.2904H14.0638V19.5808H4.53516V94.6188H14.0638V85.0902H22.8778V75.5615H32.8828V66.5093H126.74V19.5808Z" fill="#141414"/>
<path d="M117.449 10.7668H107.921V19.1044H117.449V10.7668Z" fill="#141414"/>
<path d="M60.9923 38.6381V28.8712H70.0445V19.5808H89.5782V28.8712H79.8113V38.6381H60.9923Z" fill="#141414"/>
<path d="M126.74 19.5808H117.449V56.9807L32.8828 57.4571V19.5808H41.935V10.2904H107.921V1H23.5924V10.2904H14.0638V19.5808H4.53516V94.6188H14.0638V85.0902H22.8778V75.5615H32.8828V66.5093H126.74V19.5808Z" stroke="#141414"/>
<path d="M117.449 10.7668H107.921V19.1044H117.449V10.7668Z" stroke="#141414"/>
<path d="M60.9923 38.6381V28.8712H70.0445V19.5808H89.5782V28.8712H79.8113V38.6381H60.9923Z" stroke="#141414"/>
</g>
<defs>
<filter id="filter0_d_745_286" x="0.0351562" y="0.5" width="149.786" height="121.676" filterUnits="userSpaceOnUse" color-interpolation-filters="sRGB">
<feFlood flood-opacity="0" result="BackgroundImageFix"/>
<feColorMatrix in="SourceAlpha" type="matrix" values="0 0 0 0 0 0 0 0 0 0 0 0 0 0 0 0 0 0 127 0" result="hardAlpha"/>
<feOffset dy="4"/>
<feGaussianBlur stdDeviation="2"/>
<feComposite in2="hardAlpha" operator="out"/>
<feColorMatrix type="matrix" values="0 0 0 0 0 0 0 0 0 0 0 0 0 0 0 0 0 0 0.25 0"/>
<feBlend mode="normal" in2="BackgroundImageFix" result="effect1_dropShadow_745_286"/>
<feBlend mode="normal" in="SourceGraphic" in2="effect1_dropShadow_745_286" result="shape"/>
</filter>
</defs>
</svg>
